<svg id="图层_1" data-name="图层 1" xmlns="http://www.w3.org/2000/svg" viewBox="0 0 699.96 682.89"><defs><style>.cls-1{fill:#fff;}.cls-2{fill:#fcfcfc;}.cls-3{fill:none;}</style></defs><path class="cls-1" d="M2079.26,299.69a27.3,27.3,0,0,1,31.91,19l.48,2,24.92,116.76h565.8a54.61,54.61,0,0,1,54.54,51.88l.07,2.74a54.71,54.71,0,0,1-1.57,13l-.87,3.15-96.35,311a54.65,54.65,0,0,1-49.32,38.38l-2.85.08H2214.63a54.61,54.61,0,0,1-52.77-40.55l-.64-2.66-103-482.33a27.31,27.31,0,0,1,21-32.4Zm623.11,192.38H2148.23l66.4,311H2606Zm0,0" transform="translate(-2057.64 -299.08)"/><path class="cls-2" d="M2612.92,939.29a41,41,0,1,1-41-40.94,41,41,0,0,1,41,40.94m-309.93,0a41,41,0,1,1-40.94-40.94A40.94,40.94,0,0,1,2303,939.29" transform="translate(-2057.64 -299.08)"/><rect class="cls-3" x="0.12" y="0.09" width="699.84" height="682.8"/><path class="cls-2" d="M2562.82,695v27.31a27.31,27.31,0,0,1-27.31,27.31H2289.75a27.31,27.31,0,0,1-27.31-27.31V695Zm0,0" transform="translate(-2057.64 -299.08)"/></svg>