<svg id="图层_1" data-name="图层 1" xmlns="http://www.w3.org/2000/svg" viewBox="0 0 651.64 651.64"><defs><style>.cls-1{fill:#000;}</style></defs><path class="cls-1" d="M410.47,475.64H-110.84a65.14,65.14,0,0,1-46.07-19.09A65.18,65.18,0,0,1-176,410.47V336a27.93,27.93,0,0,1,27.93-27.93A27.93,27.93,0,0,1-120.15,336v74.47a9.31,9.31,0,0,0,9.31,9.31H410.47a9.31,9.31,0,0,0,9.31-9.31V336a27.93,27.93,0,1,1,55.86,0v74.47a65.17,65.17,0,0,1-65.17,65.17Zm-260.65-223a27.93,27.93,0,0,1-27.93-28.3V-148.08A27.92,27.92,0,0,1,149.82-176a27.93,27.93,0,0,1,27.93,27.92V224.29a27.93,27.93,0,0,1-27.93,28.3Zm0,47.85a28.15,28.15,0,0,1-19.74-8.19L-56.1,106.07a27.74,27.74,0,0,1-8.24-19.74A27.74,27.74,0,0,1-56.1,66.59a28.11,28.11,0,0,1,39.47,0L169.55,252.78a27.73,27.73,0,0,1,0,39.47,28.11,28.11,0,0,1-19.73,8.19Zm0,0a28.15,28.15,0,0,1-19.74-8.19,27.75,27.75,0,0,1,0-39.47L316.27,66.59a28.1,28.1,0,0,1,39.46,0,27.74,27.74,0,0,1,0,39.48L169.55,292.25a28.11,28.11,0,0,1-19.73,8.19Zm0,0" transform="translate(176 176)"/></svg>